<svg width="24" height="24" viewBox="0 0 48 48" fill="none" xmlns="http://www.w3.org/2000/svg">
<path fill-rule="evenodd" clip-rule="evenodd" d="M40.9986 6.97143C36.4878 2.48 30.4849 0 24.0918 0C10.9154 0 0.206599 10.6743 0.195122 23.7829C0.195122 27.9771 1.29699 32.0686 3.38594 35.6686L0 48L12.6714 44.6971C16.1607 46.5943 20.0861 47.5886 24.0918 47.5886H24.1033C37.2683 47.5886 47.9885 36.9143 48 23.8057C48 17.44 45.5093 11.4629 40.9986 6.97143ZM24.1033 43.5657C20.5337 43.5657 17.033 42.6057 13.9914 40.8114L13.2683 40.3886L5.75036 42.3543L7.75897 35.0629L7.28838 34.32C5.30273 31.1771 4.24677 27.5314 4.24677 23.7943C4.24677 12.8914 13.165 4.02286 24.1148 4.02286C29.4175 4.02286 34.4103 6.08 38.1521 9.81714C41.9053 13.5543 43.9713 18.5257 43.9598 23.8057C43.9483 34.6971 35.0416 43.5657 24.1033 43.5657ZM34.9957 28.7657C34.3989 28.4686 31.4605 27.0286 30.9211 26.8343C30.3702 26.64 29.9799 26.5371 29.5782 27.1314C29.1765 27.7257 28.0402 29.0629 27.6844 29.4629C27.34 29.8629 26.9842 29.9086 26.3874 29.6114C25.7905 29.3143 23.8623 28.6857 21.5897 26.6629C19.8106 25.0857 18.6169 23.1429 18.2726 22.5486C17.9283 21.9543 18.2382 21.6343 18.5366 21.3371C18.8006 21.0743 19.1334 20.64 19.4319 20.2971C19.7303 19.9543 19.8336 19.7029 20.0287 19.3029C20.2238 18.9029 20.132 18.56 19.9828 18.2629C19.8336 17.9657 18.6399 15.04 18.1463 13.8514C17.6643 12.6971 17.1707 12.8457 16.8034 12.8343C16.4591 12.8114 16.0574 12.8114 15.6557 12.8114C15.2539 12.8114 14.6112 12.96 14.0603 13.5543C13.5093 14.1486 11.9713 15.5886 11.9713 18.5143C11.9713 21.44 14.1062 24.2629 14.4046 24.6629C14.703 25.0629 18.6169 31.0629 24.6083 33.6343C26.0316 34.2514 27.1449 34.6171 28.0172 34.8914C29.4519 35.3486 30.7489 35.28 31.7819 35.1314C32.9297 34.96 35.3171 33.6914 35.8106 32.3086C36.3042 30.9257 36.3042 29.7257 36.1549 29.4857C35.9828 29.2114 35.5925 29.0629 34.9957 28.7657Z" fill="#252525"/>
</svg>
